<svg width="96" height="96" viewBox="0 0 96 96" fill="none" xmlns="http://www.w3.org/2000/svg">
<g clip-path="url(#clip0_6_8)">
<path d="M36.1056 0H96V59.9113C96 79.831 79.831 96 59.9113 96H0V36.1056C0 16.1859 16.1859 0 36.1056 0Z" fill="#DB7C25"/>
<path d="M71.6706 36.0211C71.5692 36.0211 71.4847 36.0211 71.3833 36.038C70.5048 36.0718 69.6431 36.1732 68.8321 36.3928C68.7645 36.4097 68.6969 36.4266 68.6294 36.4266C65.8078 37.17 63.3918 38.9271 61.8205 41.2925C62.9863 37.9979 65.5882 35.3622 68.849 34.1457C68.5449 24.5998 60.7223 16.963 51.1088 16.963C44.0296 16.963 37.9641 21.1024 35.0919 27.0834C35.1088 27.0834 35.1257 27.1003 35.1426 27.1172C39.4509 29.8036 42.3231 34.5512 42.3231 39.9916C42.3231 40.1098 42.3231 40.2281 42.3062 40.3633C41.1405 35.9029 38.0148 32.2534 33.8923 30.378C33.4192 30.1584 32.9462 29.9725 32.4562 29.8036C32.4224 29.8036 32.3886 29.7867 32.3548 29.7698C31.9324 29.6346 31.4931 29.5164 31.0708 29.415C30.9525 29.3812 30.8173 29.3643 30.6991 29.3305C30.3443 29.2629 29.9726 29.1954 29.6009 29.1447C29.4488 29.1278 29.3136 29.1109 29.1616 29.094C28.7054 29.0433 28.2492 29.0264 27.7761 29.0095C27.7424 29.0095 27.6917 29.0095 27.6579 29.0095C27.2862 29.0095 26.9314 29.0433 26.5766 29.0602C26.4245 29.0602 26.2724 29.0602 26.1373 29.0771C25.9345 29.094 25.7318 29.1447 25.529 29.1616C25.2249 29.2123 24.9208 29.246 24.6336 29.2967C24.4477 29.3305 24.2788 29.3812 24.0929 29.4319C23.7888 29.4995 23.4847 29.5671 23.1806 29.6684C22.9947 29.7191 22.8258 29.8036 22.6399 29.8543C22.3527 29.9557 22.0655 30.057 21.7951 30.1584C21.6093 30.2429 21.4234 30.3442 21.2376 30.4287C20.9842 30.547 20.7307 30.6653 20.4942 30.7835C20.2915 30.9018 20.0887 31.0201 19.886 31.1383C19.6832 31.2735 19.4636 31.3918 19.2608 31.5269C19.0412 31.679 18.8384 31.8479 18.6188 32C18.4499 32.1352 18.264 32.2534 18.1119 32.3886C17.8754 32.5744 17.6727 32.7772 17.453 32.9799C17.3179 33.0982 17.1827 33.2165 17.0475 33.3516C16.811 33.5882 16.5913 33.8247 16.3886 34.0612C16.2872 34.1795 16.1859 34.2809 16.0845 34.3992C15.8648 34.6695 15.6452 34.9567 15.4425 35.227C15.3749 35.3284 15.2904 35.4298 15.2228 35.5312C15.0032 35.8353 14.8173 36.1563 14.6315 36.4773C14.5808 36.5618 14.5132 36.6631 14.4625 36.7476C14.2767 37.0855 14.1077 37.4403 13.9388 37.7951C13.905 37.8796 13.8543 37.9641 13.8205 38.0486C13.6684 38.4203 13.5164 38.792 13.3812 39.1637C13.3474 39.2482 13.3136 39.3326 13.2967 39.4002C13.1785 39.7888 13.0602 40.1774 12.9757 40.5829C12.9588 40.6674 12.925 40.7519 12.9081 40.8363C12.8237 41.2249 12.7561 41.6304 12.7054 42.0359C12.7054 42.1373 12.6716 42.2218 12.6547 42.3231C12.604 42.7117 12.5871 43.1172 12.5702 43.5227C12.5702 43.7255 12.5364 43.9282 12.5364 44.1478C12.5364 52.528 19.3284 59.32 27.7086 59.32C28.452 59.32 29.1785 59.2524 29.8881 59.1341V75.5396C29.8881 77.2123 38.5048 78.5639 49.132 78.5639C59.7593 78.5639 68.2746 77.1954 68.2746 75.5227V75.2186V59.0834C69.3728 59.4213 70.5555 59.6072 71.755 59.6072C76.9081 59.6072 81.2841 56.2957 82.906 51.7001C83.0074 51.4298 83.0919 51.1595 83.1595 50.8722C83.1595 50.8215 83.1764 50.7878 83.1933 50.7371C83.2608 50.4498 83.3284 50.1626 83.3791 49.8754C83.3791 49.8247 83.3791 49.774 83.396 49.7233C83.4974 49.0982 83.565 48.4562 83.565 47.8142C83.565 41.2587 78.2598 35.9535 71.7043 35.9535L71.6706 36.0211ZM51.1764 18.6695C59.1341 18.6695 65.7571 24.397 67.1426 31.9493C64.4055 24.5829 57.3263 19.3284 49.0137 19.3284C47.8648 19.3284 46.7497 19.4467 45.6515 19.6325C47.3749 19.0074 49.2334 18.6526 51.1764 18.6526V18.6695ZM49.0644 55.4171C58.188 55.4171 65.6558 56.9377 66.4667 58.6272C63.7804 57.5966 57.0053 56.8701 49.0644 56.8701C41.1236 56.8701 34.3485 57.5966 31.6621 58.6272C32.4731 56.9377 39.9409 55.4171 49.0644 55.4171ZM49.0644 69.7614C58.188 69.7614 65.7065 70.944 66.4667 72.3126C63.7804 71.2819 57.0053 70.5554 49.0644 70.5554C41.1236 70.5554 34.3485 71.2819 31.6621 72.3126C32.4055 70.9271 39.9409 69.7614 49.0644 69.7614ZM49.0644 77.0602C39.4171 77.0602 31.5776 75.9113 31.5776 74.4921C31.5776 73.0729 39.4002 71.924 49.0644 71.924C58.7286 71.924 66.5512 73.0729 66.5512 74.4921C66.5512 75.9113 58.7286 77.0602 49.0644 77.0602ZM70.4203 38.0317C69.6938 38.0317 68.9842 38.0993 68.3084 38.2344C69.3897 37.8458 70.5555 37.6093 71.7888 37.6093C76.7899 37.6093 80.9462 41.208 81.8247 45.9557C80.1014 41.3263 75.6579 38.0317 70.4372 38.0317H70.4203Z" fill="white"/>
</g>
<defs>
<clipPath id="clip0_6_8">
<rect width="96" height="96" fill="white"/>
</clipPath>
</defs>
</svg>
